<svg width="456" height="456" viewBox="0 0 456 456" fill="none" xmlns="http://www.w3.org/2000/svg">
<path fill-rule="evenodd" clip-rule="evenodd" d="M375 0C388.807 0 400 11.1929 400 25V226.753C433.749 249.136 456 287.47 456 331C456 400.036 400.036 456 331 456C287.47 456 249.136 433.749 226.753 400H25C11.1929 400 0 388.807 0 375V25C0 11.1929 11.1929 0 25 0H375ZM213.964 375C209.822 363.988 207.19 352.238 206.319 340H85C71.1929 340 60 328.807 60 315V85C60 71.1929 71.1929 60 85 60H315C328.807 60 340 71.1929 340 85V206.319C352.238 207.19 363.988 209.822 375 213.964V50C375 36.1929 363.807 25 350 25H50C36.1929 25 25 36.1929 25 50V350C25 363.807 36.1929 375 50 375H213.964ZM315 207.014V110C315 96.1929 303.807 85 290 85H110C96.1929 85 85 96.1929 85 110V242.718L133.961 186.995L139.412 180.791L146.535 184.971L188.327 209.496L220.188 172.52L225.088 166.834L231.916 169.951L313.533 207.211C314.021 207.142 314.51 207.077 315 207.014ZM319.036 231.708L319.883 232.095L320.116 231.585C323.691 231.199 327.322 231 331 231C386.229 231 431 275.772 431 331C431 386.228 386.229 431 331 431C275.772 431 231 386.228 231 331C231 279.82 269.448 237.62 319.036 231.708ZM283.334 215.41L230.439 191.262L123.82 315H207.014C212.785 269.833 242.661 232.2 283.334 215.41ZM85 273.019V290C85 300.031 90.9073 308.682 99.4328 312.663L175.056 224.898L143.535 206.4L85 273.019ZM258 334C258 328.477 262.477 324 268 324H320V272C320 266.477 324.477 262 330 262C335.523 262 340 266.477 340 272V324H392C397.523 324 402 328.477 402 334C402 339.523 397.523 344 392 344H340V396C340 401.523 335.523 406 330 406C324.477 406 320 401.523 320 396V344H268C262.477 344 258 339.523 258 334Z" fill="black"/>
</svg>
